<svg width="16" height="16" viewBox="0 0 16 16" fill="none" xmlns="http://www.w3.org/2000/svg">
<rect width="16" height="16" rx="8" fill="#3DF5E0"/>
<path d="M8.4898 12.3332C7.6346 12.3332 6.86492 12.1506 6.18076 11.7856C5.50437 11.4125 4.97182 10.8967 4.58309 10.2379C4.19436 9.5792 4 8.83317 4 7.99984C4 7.1665 4.19436 6.42047 4.58309 5.76174C4.97182 5.10301 5.50437 4.59111 6.18076 4.22603C6.86492 3.85301 7.6346 3.6665 8.4898 3.6665C9.23615 3.6665 9.90865 3.80142 10.5073 4.07127C11.1059 4.34111 11.6035 4.73 12 5.23793L10.5306 6.59508C10.0019 5.94428 9.36054 5.61889 8.60641 5.61889C8.16327 5.61889 7.76676 5.71809 7.41691 5.9165C7.07483 6.11492 6.80661 6.39666 6.61224 6.76174C6.42566 7.11889 6.33236 7.53158 6.33236 7.99984C6.33236 8.46809 6.42566 8.88476 6.61224 9.24984C6.80661 9.60698 7.07483 9.88476 7.41691 10.0832C7.76676 10.2816 8.16327 10.3808 8.60641 10.3808C9.36054 10.3808 10.0019 10.0554 10.5306 9.4046L12 10.7617C11.6035 11.2697 11.1059 11.6586 10.5073 11.9284C9.90865 12.1983 9.23615 12.3332 8.4898 12.3332Z" fill="#0C4651"/>
</svg>
